<svg width="46" height="36" viewBox="0 0 46 36" fill="none" xmlns="http://www.w3.org/2000/svg">
<path fill-rule="evenodd" clip-rule="evenodd" d="M0 0H46V36H0V0Z" fill="white"/>
<path fill-rule="evenodd" clip-rule="evenodd" d="M2.02456 33.1879H1.89307C1.89307 33.1365 1.86014 33.0592 1.86014 33.0332C1.86014 33.0076 1.86014 32.9563 1.76134 32.9563H1.56374V33.1879H1.46495V32.647H1.76134C1.89307 32.647 1.99163 32.6729 1.99163 32.7757C1.99163 32.853 1.9587 32.8789 1.926 32.9043C1.95894 32.9303 1.99163 32.9561 1.99163 33.0076V33.1105C1.99163 33.1365 1.99163 33.1365 2.02456 33.1365V33.1879ZM1.89307 32.8016C1.89307 32.7243 1.82721 32.7243 1.79427 32.7243H1.56374V32.8789H1.76134C1.82721 32.8789 1.89307 32.853 1.89307 32.8016V32.8016ZM2.45269 32.9045C2.45269 32.5956 2.1236 32.3377 1.69547 32.3377C1.30052 32.3377 0.971191 32.5956 0.971191 32.9045C0.971191 33.2394 1.30052 33.4973 1.69547 33.4973C2.12336 33.4971 2.45269 33.2394 2.45269 32.9045ZM2.35389 32.9045C2.35389 33.188 2.05774 33.394 1.69547 33.394C1.33321 33.394 1.06999 33.1879 1.06999 32.9045C1.06999 32.647 1.33345 32.415 1.69547 32.415C2.0575 32.415 2.35389 32.647 2.35389 32.9045ZM42.9123 22.496C42.9123 23.269 42.2868 23.6292 41.1674 23.6292H39.0279V22.8562H41.1674C41.365 22.8562 41.5296 22.8306 41.5957 22.7793C41.6614 22.7275 41.7272 22.6502 41.7272 22.5473C41.7272 22.444 41.6616 22.3411 41.5957 22.2898C41.5296 22.238 41.3981 22.2124 41.2005 22.2124C40.1803 22.1865 38.8962 22.238 38.8962 21.1046C38.8962 20.5891 39.3241 20.0223 40.4763 20.0223H42.6818V20.7953H40.6407C40.4436 20.7953 40.3116 20.7953 40.2128 20.8466C40.114 20.924 40.0484 21.0013 40.0484 21.1301C40.0484 21.259 40.1472 21.3363 40.2787 21.3881C40.4106 21.4137 40.5424 21.4394 40.707 21.4394H41.2993C41.9248 21.4394 42.32 21.5423 42.5835 21.7229C42.7806 21.9032 42.9123 22.1353 42.9123 22.496V22.496ZM38.2705 21.7229C38.007 21.5423 37.6118 21.4394 36.9863 21.4394H36.394C36.2296 21.4394 36.0976 21.4135 35.9661 21.3881C35.8342 21.3363 35.7358 21.259 35.7358 21.1301C35.7358 21.0013 35.7685 20.924 35.9003 20.8466C35.9991 20.7953 36.1306 20.7953 36.3282 20.7953H38.3693V20.0223H36.1637C34.9784 20.0223 34.5832 20.5891 34.5832 21.1046C34.5832 22.2378 35.8673 22.1865 36.888 22.2124C37.0851 22.2124 37.2171 22.238 37.2827 22.2898C37.3484 22.3411 37.4147 22.444 37.4147 22.5473C37.4147 22.6502 37.3486 22.7275 37.2827 22.7793C37.1839 22.8306 37.0524 22.8562 36.8548 22.8562H34.7149V23.6292H36.8548C37.9738 23.6292 38.5996 23.2688 38.5996 22.496C38.5996 22.1353 38.4681 21.9032 38.2705 21.7229V21.7229ZM34.0565 22.8824H31.4562V22.1609H33.9909V21.4398H31.4562V20.7697H34.0565V20.0226H30.3697V23.6294H34.0565V22.8824ZM29.1844 20.203C28.8221 20.0484 28.3942 20.0224 27.8346 20.0224H25.3V23.6292H26.419V22.3154H27.6043C27.999 22.3154 28.2298 22.3413 28.3944 22.47C28.592 22.6502 28.592 22.9595 28.592 23.1915V23.6292H29.6781V22.9335C29.6781 22.5987 29.6454 22.444 29.5137 22.2638C29.4149 22.1605 29.2178 22.0318 28.9543 21.9545C29.2502 21.8776 29.7445 21.5683 29.7445 21.0013C29.7442 20.5893 29.5466 20.3573 29.1844 20.203V20.203ZM22.9295 20.0224H19.4069L17.9913 21.2077L16.6415 20.0224H12.1972V23.6292H16.5759L17.9915 22.444L19.3413 23.6292H21.4812V22.4186H22.8639C23.8185 22.4186 24.7735 22.2124 24.7735 21.2077C24.7733 20.2286 23.7855 20.0224 22.9295 20.0224ZM28.2954 21.5169C28.131 21.5683 27.9663 21.5683 27.7687 21.5683L26.419 21.5943V20.7695H27.7687C27.9663 20.7695 28.1639 20.7695 28.2954 20.8468C28.4274 20.8986 28.5257 21.0015 28.5257 21.1561C28.5257 21.3107 28.4274 21.4396 28.2954 21.5169V21.5169ZM22.9295 21.6972H21.4809V20.7695H22.9295C23.3247 20.7695 23.5879 20.8986 23.5879 21.2077C23.5879 21.5169 23.3245 21.6972 22.9295 21.6972ZM18.6826 21.8258L20.3944 20.4091V23.3203L18.6826 21.8258ZM16.016 22.8824H13.2835V22.1609H15.7196V21.4398H13.2835V20.7697H16.0489L17.267 21.826L16.016 22.8824V22.8824ZM39.8505 17.4203H38.2705L36.1964 14.715V17.4203H33.9582L33.5298 16.6215H31.2255L30.7976 17.4203H29.5134C28.9868 17.4203 28.2954 17.3172 27.9007 17.0079C27.5384 16.6988 27.3408 16.2866 27.3408 15.6424C27.3408 15.1014 27.4396 14.6119 27.9332 14.2255C28.2622 13.942 28.855 13.8133 29.612 13.8133H30.6654V14.5863H29.612C29.2173 14.5863 28.9865 14.6378 28.7562 14.7925C28.5586 14.9471 28.4598 15.2304 28.4598 15.6169C28.4598 16.0033 28.5586 16.2868 28.7562 16.4672C28.9207 16.5959 29.2173 16.6474 29.5132 16.6474H30.0072L31.5873 13.8135H33.2334L35.0769 17.2143V13.8133H36.789L38.7313 16.3124V13.8133H39.8503V17.4203H39.8505V17.4203ZM26.7812 13.8133H25.6622V17.4203H26.7812V13.8133V13.8133ZM24.4437 13.9679C24.0814 13.8133 23.6867 13.8133 23.1271 13.8133H20.592V17.4203H21.6783V16.1062H22.8634C23.2586 16.1062 23.5221 16.132 23.6865 16.2608C23.8841 16.4412 23.8509 16.7505 23.8509 16.9565V17.4203H24.9699V16.6988C24.9699 16.3897 24.9372 16.235 24.7728 16.0546C24.674 15.9515 24.4764 15.8227 24.2461 15.7455C24.542 15.6424 25.0363 15.3591 25.0363 14.7923C25.0365 14.3801 24.8057 14.1481 24.4437 13.9679ZM19.8018 16.6732H17.234V15.9517H19.7689V15.2047H17.234V14.5605H19.8018V13.8135H16.1148V17.4204H19.8018V16.6732ZM15.2917 13.8133H13.4811L12.1314 16.2608L10.6828 13.8133H8.90514V17.2141L7.02868 13.8133H5.38276L3.4075 17.4203H4.59261L5.0205 16.6215H7.32484L7.75273 17.4203H9.99144V14.5863L11.6044 17.4203H12.559L14.1722 14.5863V17.4203H15.2915V13.8133H15.2917ZM33.1351 15.8486L32.3776 14.4316L31.6207 15.8486H33.1351ZM23.5879 15.282C23.4235 15.3593 23.2588 15.3593 23.0283 15.3593H21.6783V14.5607H23.0281C23.2257 14.5607 23.4557 14.5607 23.5877 14.6123C23.7192 14.6896 23.7853 14.7927 23.7853 14.9471C23.7853 15.1016 23.7194 15.2303 23.5879 15.282V15.282ZM5.41545 15.8486L6.17267 14.4316L6.92988 15.8486H5.41545V15.8486ZM42.6491 2.50281H3.37433V15.488L4.7241 13.092H7.58806L7.98326 13.6846V13.092H11.3412L12.0984 14.3801L12.8227 13.092H23.5221C24.0156 13.092 24.4435 13.1693 24.773 13.3753V13.092H27.7029V13.3753C28.1964 13.1691 28.8219 13.092 29.5464 13.092H33.793L34.1882 13.6846V13.092H37.3157L37.7767 13.6846V13.092H40.838V18.1417H37.7438L37.1515 17.3689V18.1417H33.2995L32.8716 17.3173H31.9166L31.4887 18.1417H29.4808C28.6906 18.1417 28.0978 17.9871 27.7031 17.8326V18.1417H22.9295V16.9823C22.9295 16.8277 22.8966 16.8019 22.7648 16.8019H22.6004V18.1415H13.3823V17.4974L13.0532 18.1415H11.1109L10.7818 17.5232V18.1415H7.06162L6.66666 17.3172H5.71185L5.28396 18.1415H3.37433V33.3683H42.6491V24.1188C42.2212 24.2734 41.6284 24.3507 41.0359 24.3507H38.1717V24.0414C37.8426 24.2478 37.2498 24.3507 36.6904 24.3507H27.6699V23.1915C27.6699 23.0368 27.6372 23.0368 27.4723 23.0368H27.3079V24.3507H24.3449V22.9853C23.8514 23.1655 23.2915 23.1655 22.7978 23.1655H22.4685V24.3507H18.8473L17.9915 23.5777L17.0369 24.3507H11.2095V19.3012H17.1352L17.9913 20.0738L18.9131 19.3012H22.8966C23.3572 19.3012 24.1146 19.3525 24.4437 19.6101V19.3012H27.999C28.3613 19.3012 29.0529 19.3525 29.5134 19.6101V19.3012H34.8796V19.6103C35.176 19.4041 35.7358 19.3013 36.2294 19.3013H39.2251V19.6103C39.5546 19.43 40.0152 19.3013 40.608 19.3013H42.6491V2.50281V2.50281Z" fill="#0077A6"/>
</svg>
