<svg width="41" height="19" viewBox="0 0 41 19" fill="none" xmlns="http://www.w3.org/2000/svg">
<g clip-path="url(#clip0_2802_308)">
<path d="M0.00512695 0H40.9949V19H0.00512695V0Z" fill="black"/>
<path d="M8.45061 5.82026C8.8451 5.69126 9.26588 5.62247 9.70245 5.62247C11.6135 5.62247 13.209 6.95369 13.5737 8.72349L16.2825 8.18171C15.6618 5.17529 12.9513 2.91187 9.70245 2.91187C8.95731 2.91187 8.24372 3.03054 7.57397 3.25069L8.45061 5.82026Z" fill="#FFCB05"/>
<path d="M5.25449 14.4302L7.08666 12.399C6.26963 11.6886 5.75417 10.6515 5.75417 9.49573C5.75417 8.34166 6.26963 7.30455 7.08666 6.59594L5.25449 4.56299C3.86589 5.77037 2.98926 7.5333 2.98926 9.49573C2.98926 11.4599 3.86589 13.2228 5.25449 14.4302" fill="#00A4E0"/>
<path d="M13.5737 10.2731C13.2072 12.0412 11.6135 13.3707 9.7042 13.3707C9.26588 13.3707 8.84334 13.3019 8.45061 13.1711L7.57397 15.7442C8.24372 15.9626 8.95906 16.0813 9.7042 16.0813C12.9495 16.0813 15.6583 13.8213 16.2825 10.8183L13.5737 10.2731Z" fill="#EF4123"/>
<path d="M18.6511 12.4832C18.5617 12.3422 18.4424 12.1169 18.3688 11.95C17.9393 10.9731 17.92 9.96182 18.2811 8.99178C18.6791 7.92715 19.4401 7.11362 20.4236 6.6974C21.6597 6.17626 23.0255 6.27774 24.2107 6.96743C24.9629 7.39053 25.4959 8.0441 25.9009 8.96942C25.9517 9.0881 25.9973 9.21365 26.0429 9.322L18.6511 12.4832ZM21.1197 8.26769C20.2413 8.63748 19.789 9.44584 19.8836 10.3918L23.6006 8.82151C22.9606 8.08538 22.1296 7.84115 21.1197 8.26769V8.26769ZM24.0634 11.6835C24.0617 11.6835 24.0617 11.6852 24.0617 11.6852L23.9845 11.6336C23.7619 11.9862 23.4165 12.2734 22.9799 12.4591C22.1489 12.8135 21.3792 12.7223 20.8251 12.2459L20.7743 12.3216C20.7743 12.3216 20.7743 12.3198 20.7725 12.3198L19.8293 13.7044C20.0642 13.8643 20.3149 13.9985 20.5779 14.1068C21.6194 14.5317 22.6854 14.511 23.7356 14.0638C24.4947 13.7405 25.0909 13.2486 25.4976 12.6243L24.0634 11.6835ZM28.6255 4.66101V12.356L29.8457 12.841L29.1532 14.4267L27.8067 13.8764C27.5051 13.7474 27.2982 13.5513 27.1439 13.3294C26.9949 13.1041 26.8845 12.7928 26.8845 12.3766V4.66101H28.6255ZM31.7848 10.397C31.7848 9.74167 32.0812 9.15345 32.5475 8.75443L31.2957 7.38537C30.4471 8.1215 29.9124 9.19645 29.9124 10.3935C29.9106 11.5923 30.4454 12.669 31.2922 13.4051L32.5423 12.036C32.0776 11.6353 31.7848 11.0505 31.7848 10.397V10.397ZM34.008 12.5795C33.7625 12.5795 33.5241 12.5383 33.3032 12.466L32.7053 14.2083C33.1138 14.3425 33.5504 14.4164 34.0062 14.4164C35.9874 14.4181 37.6408 13.0388 38.0247 11.207L36.1873 10.839C35.9787 11.8348 35.0828 12.5813 34.008 12.5795V12.5795ZM34.0133 6.37749C33.5592 6.37749 33.1226 6.44973 32.7141 6.58217L33.3067 8.32617C33.5294 8.25393 33.766 8.21437 34.0115 8.21437C35.088 8.21609 35.9857 8.96598 36.1891 9.96354L38.0265 9.59891C37.6495 7.76375 35.9962 6.37921 34.0133 6.37749V6.37749Z" fill="white"/>
</g>
<defs>
<clipPath id="clip0_2802_308">
<rect width="41" height="19" fill="white"/>
</clipPath>
</defs>
</svg>
