<svg width="39" height="19" viewBox="0 0 39 19" fill="none" xmlns="http://www.w3.org/2000/svg">
<g clip-path="url(#clip0_2802_305)">
<path d="M10.708 0H6.66692C4.88126 0.0945099 3.42167 0.8996 3.00023 2.55982C2.78048 3.42566 2.65954 4.37659 2.4877 5.27413C1.61413 9.83785 0.839519 14.5274 0.00390625 19H31.4657C33.898 19 35.5681 18.4246 36.0194 16.2635C36.229 15.2596 36.4299 14.1227 36.6305 13.0197C37.4124 8.71941 38.1951 4.41934 38.9961 0H10.708Z" fill="#822124"/>
<path d="M10.3927 6.75261C10.5617 6.62229 10.7794 6.02875 10.5307 5.78164C10.4519 5.70341 10.3202 5.6807 10.1364 5.71549C9.96597 5.74771 9.86792 5.81257 9.80133 5.91411C9.69433 6.07734 9.59612 6.56976 9.76191 6.7527C9.92342 6.93075 10.2852 6.83547 10.3927 6.75261V6.75261ZM7.98774 5.78164C7.86665 6.66119 7.73025 7.5236 7.59347 8.38559C6.7153 8.39595 5.81868 8.43408 4.97166 8.36348C5.13164 7.52017 5.24637 6.62614 5.40535 5.78164H4.45914C4.12044 7.93283 3.81228 10.1184 3.43408 12.2254H4.40005C4.55152 11.1446 4.69328 10.0527 4.89283 9.02556C5.71642 9.00286 6.70351 8.96327 7.49496 9.04767C7.33177 10.1156 7.1346 11.1451 6.98243 12.2254H7.94839C8.25885 10.0424 8.58576 7.87808 8.97353 5.78164H7.98774V5.78164ZM21.6488 7.63533C20.8972 7.29551 20.3063 7.86977 20.0324 8.40769C20.0945 8.16838 20.1201 7.8881 20.1704 7.63533H19.4213C19.2382 9.22521 18.9683 10.7178 18.7117 12.2254H19.5594C19.6782 11.3306 19.7295 10.1243 19.993 9.26831C20.2037 8.58429 20.7549 8.00155 21.5503 8.31944C21.5614 8.0671 21.6259 7.87448 21.6488 7.63533V7.63533ZM22.1218 11.1441C22.0437 10.9181 22.0235 10.545 22.0431 10.2613C22.0868 9.62373 22.2944 8.84743 22.6147 8.49595C23.0568 8.01089 23.9294 8.09118 24.6255 8.36357C24.647 8.10094 24.6942 7.86668 24.7241 7.61331C23.5825 7.40459 22.4993 7.53448 21.9249 8.20916C21.3626 8.86962 20.9941 10.3876 21.2546 11.3427C21.5595 12.4604 22.927 12.5211 24.0341 12.0931C24.0831 11.8684 24.1091 11.6179 24.1524 11.3869C23.5473 11.7387 22.3907 11.9215 22.1218 11.1441V11.1441ZM31.6432 7.65735C30.894 7.23802 30.2703 7.94166 30.0268 8.36348C30.0961 8.14704 30.1001 7.85717 30.1647 7.63525H29.4157C29.2137 9.21133 28.9703 10.741 28.6864 12.2253H29.5538C29.5592 11.6169 29.666 11.1669 29.7508 10.5704C29.932 9.29641 30.1983 7.89941 31.5251 8.31935C31.569 8.10394 31.5873 7.85957 31.6432 7.65735ZM9.52532 7.63533C9.50236 7.63902 9.50389 7.67021 9.50557 7.70148C9.31881 9.26514 9.06599 10.755 8.79595 12.2253H9.64358C9.84726 10.6511 10.0806 9.11022 10.3729 7.63525L9.52532 7.63533V7.63533ZM16.9768 7.54708C16.3643 7.59995 15.8466 7.79719 15.4786 8.23118C15.0273 8.76337 14.6619 9.94007 14.769 11.0117C14.9218 12.5405 16.6222 12.4856 17.9822 12.1151C18.0054 11.8467 18.0634 11.6173 18.1004 11.3647C17.5402 11.5994 16.5674 11.927 15.9911 11.5193C15.556 11.2113 15.5535 10.4316 15.6954 9.75388C16.6095 9.72132 17.5595 9.72749 18.4749 9.75388C18.5329 9.27353 18.6991 8.74983 18.5537 8.2754C18.3621 7.64904 17.6755 7.48676 16.9768 7.54708ZM17.785 9.22418H15.7939C15.857 8.71179 16.2688 8.14858 16.9176 8.12082C17.5283 8.09469 17.9655 8.37179 17.785 9.22418V9.22418ZM13.7636 7.63533C13.0462 7.33364 12.1718 7.69377 11.7927 8.03634C11.7941 8.05142 11.7837 8.05347 11.7725 8.05459C11.779 8.0485 11.786 8.04242 11.7927 8.03634C11.7927 8.03507 11.7925 8.03381 11.7923 8.03257C11.7987 7.88528 11.845 7.78263 11.8514 7.63533H11.1221C10.8181 9.89903 10.4577 12.0994 10.0773 14.2776H10.925C11.0477 13.4293 11.1287 12.5343 11.2996 11.7399C11.4931 12.5755 12.7572 12.4158 13.2906 12.093C14.391 11.4267 15.2399 8.25603 13.7636 7.63533V7.63533ZM13.0934 11.3647C12.6399 11.9024 11.525 11.8944 11.4375 10.9895C11.3995 10.5959 11.5304 10.1832 11.5953 9.7759C11.6608 9.36367 11.708 8.96816 11.7726 8.60631C12.2193 7.99572 13.5319 7.92195 13.6651 8.93731C13.7806 9.81883 13.4689 10.9194 13.0934 11.3647V11.3647ZM34.7972 5.64926C34.7246 6.36232 34.6275 7.04805 34.5016 7.70148C32.4223 6.96468 31.1472 8.67726 31.1702 10.791C31.1747 11.1998 31.2375 11.6052 31.4658 11.8944C31.8595 12.3925 32.9864 12.5119 33.5555 12.0929C33.6655 12.0118 33.7781 11.8643 33.8511 11.762C33.906 11.6849 33.993 11.4832 34.0088 11.5413C33.9788 11.7652 33.9341 11.9727 33.9301 12.2253H34.6989C34.8471 9.84599 35.3052 7.81381 35.6451 5.64917H34.7973V5.64926H34.7972ZM32.9049 11.7178C32.3342 11.7315 32.0505 11.3361 32.0374 10.6806C32.0147 9.53264 32.4645 8.25723 33.378 8.14284C33.8032 8.08963 34.1112 8.20034 34.4228 8.31944C34.1367 9.60899 34.2399 11.6857 32.9049 11.7178V11.7178ZM25.5913 7.63533C25.5496 7.89753 25.4855 8.13479 25.4336 8.38559C25.9339 8.24515 27.4914 7.81467 27.6415 8.5621C27.6913 8.81041 27.6054 9.07423 27.5429 9.26831C26.1345 9.11896 24.9866 9.3809 24.6845 10.504C24.4823 11.2564 24.7072 11.9967 25.138 12.2033C25.9676 12.6013 26.9767 12.1454 27.3261 11.5193C27.2898 11.736 27.2554 11.9551 27.2671 12.2254H27.9964C28.0042 11.4434 28.1058 10.8105 28.2132 10.1068C28.3047 9.50762 28.477 8.91443 28.4498 8.38559C28.387 7.17444 26.5946 7.60286 25.5913 7.63533V7.63533ZM26.9712 11.3426C26.5344 11.8214 25.3082 11.9573 25.4336 10.813C25.5377 9.86261 26.4622 9.66066 27.4639 9.79784C27.3895 10.3178 27.3041 10.9779 26.9712 11.3426V11.3426Z" fill="white"/>
</g>
<defs>
<clipPath id="clip0_2802_305">
<rect width="39" height="19" fill="white"/>
</clipPath>
</defs>
</svg>
